<?xml version="1.0" encoding="UTF-8"?> <svg xmlns="http://www.w3.org/2000/svg" id="Layer_1" data-name="Layer 1" viewBox="0 0 145.8 43.2"><defs><style>.cls-1{fill:#a6a6a6;}.cls-2{fill:#fff;}</style></defs><title>app-store</title><path class="cls-1" d="M140.62,43.2H5.11A5.12,5.12,0,0,1,0,38.09V5.1A5.11,5.11,0,0,1,5.11,0H140.62a5.18,5.18,0,0,1,5.19,5.1v33a5.19,5.19,0,0,1-5.19,5.11Z"></path><path d="M144.76,38.09a4.14,4.14,0,0,1-4.14,4.14H5.11A4.14,4.14,0,0,1,1,38.09V5.1A4.15,4.15,0,0,1,5.11,1H140.62a4.14,4.14,0,0,1,4.14,4.14v33Z"></path><path class="cls-2" d="M32.54,21.37a6.26,6.26,0,0,1,3-5.25,6.41,6.41,0,0,0-5.05-2.73c-2.12-.22-4.19,1.27-5.27,1.27s-2.77-1.25-4.57-1.21A6.72,6.72,0,0,0,15,16.89c-2.45,4.24-.62,10.46,1.72,13.89,1.17,1.68,2.54,3.55,4.34,3.48s2.41-1.12,4.53-1.12,2.71,1.12,4.54,1.08,3.07-1.68,4.2-3.38a13.86,13.86,0,0,0,1.92-3.91A6.05,6.05,0,0,1,32.54,21.37Z"></path><path class="cls-2" d="M29.08,11.13a6.16,6.16,0,0,0,1.41-4.42,6.28,6.28,0,0,0-4.06,2.1A5.86,5.86,0,0,0,25,13.07,5.18,5.18,0,0,0,29.08,11.13Z"></path><path class="cls-2" d="M57.94,34H55.49L54.14,29.8H49.47L48.19,34H45.8l4.63-14.37h2.86Zm-4.2-6-1.22-3.75q-.19-.58-.72-2.71h0q-.21.92-.68,2.71L49.88,28Z"></path><path class="cls-2" d="M69.84,28.72a5.89,5.89,0,0,1-1.43,4.18,4.18,4.18,0,0,1-3.18,1.37,3.18,3.18,0,0,1-2.94-1.47h0v5.46h-2.3V27.07q0-1.66-.09-3.41h2L62,25.3h0a4.1,4.1,0,0,1,6.56-.41A5.71,5.71,0,0,1,69.84,28.72Zm-2.35.08a4.27,4.27,0,0,0-.68-2.49,2.36,2.36,0,0,0-2-1,2.39,2.39,0,0,0-1.55.56,2.62,2.62,0,0,0-.91,1.48,3,3,0,0,0-.11.7v1.73a2.77,2.77,0,0,0,.69,1.91,2.3,2.3,0,0,0,1.8.78,2.36,2.36,0,0,0,2-1A4.41,4.41,0,0,0,67.49,28.8Z"></path><path class="cls-2" d="M81.76,28.72a5.89,5.89,0,0,1-1.43,4.18,4.17,4.17,0,0,1-3.18,1.37,3.17,3.17,0,0,1-2.94-1.47h0v5.46h-2.3V27.07q0-1.66-.09-3.41h2l.13,1.64h0a4.1,4.1,0,0,1,6.56-.41A5.73,5.73,0,0,1,81.76,28.72Zm-2.35.08a4.27,4.27,0,0,0-.68-2.49,2.35,2.35,0,0,0-2-1,2.4,2.4,0,0,0-1.55.56,2.62,2.62,0,0,0-.91,1.48,3.07,3.07,0,0,0-.11.7v1.73a2.78,2.78,0,0,0,.69,1.91,2.3,2.3,0,0,0,1.8.78,2.36,2.36,0,0,0,2-1A4.41,4.41,0,0,0,79.41,28.8Z"></path><path class="cls-2" d="M95.08,30a3.83,3.83,0,0,1-1.28,3,5.66,5.66,0,0,1-3.92,1.26,6.85,6.85,0,0,1-3.73-.9l.53-1.92a6.31,6.31,0,0,0,3.33.92,3.15,3.15,0,0,0,2-.59,1.92,1.92,0,0,0,.72-1.57,2,2,0,0,0-.6-1.47,5.55,5.55,0,0,0-2-1.11q-3.77-1.41-3.77-4.12a3.65,3.65,0,0,1,1.32-2.9,5.22,5.22,0,0,1,3.52-1.13,7,7,0,0,1,3.26.68L94,22a5.66,5.66,0,0,0-2.75-.66,2.78,2.78,0,0,0-1.9.6,1.71,1.71,0,0,0-.58,1.3,1.76,1.76,0,0,0,.66,1.41,7.46,7.46,0,0,0,2.09,1.11,7.09,7.09,0,0,1,2.73,1.75A3.65,3.65,0,0,1,95.08,30Z"></path><path class="cls-2" d="M102.7,25.39h-2.54v5q0,1.92,1.34,1.92a4.1,4.1,0,0,0,1-.11l.06,1.75a5.22,5.22,0,0,1-1.79.25,2.76,2.76,0,0,1-2.13-.83,4.09,4.09,0,0,1-.77-2.79V25.39H96.39V23.66H97.9v-1.9l2.26-.68v2.58h2.54Z"></path><path class="cls-2" d="M114.15,28.76a5.69,5.69,0,0,1-1.37,3.92,4.87,4.87,0,0,1-3.8,1.58,4.63,4.63,0,0,1-3.63-1.51A5.51,5.51,0,0,1,104,28.93a5.63,5.63,0,0,1,1.4-3.94,4.83,4.83,0,0,1,3.76-1.54A4.73,4.73,0,0,1,112.82,25,5.45,5.45,0,0,1,114.15,28.76Zm-2.39.07a4.66,4.66,0,0,0-.62-2.46,2.27,2.27,0,0,0-2.07-1.24A2.31,2.31,0,0,0,107,26.37a4.75,4.75,0,0,0-.62,2.5,4.66,4.66,0,0,0,.62,2.46,2.35,2.35,0,0,0,4.16,0A4.68,4.68,0,0,0,111.76,28.83Z"></path><path class="cls-2" d="M121.63,25.69a4,4,0,0,0-.73-.06,2.18,2.18,0,0,0-1.88.92,3.45,3.45,0,0,0-.58,2V34h-2.3l0-7.1q0-1.79-.09-3.26h2l.08,2h.06A3.54,3.54,0,0,1,119.39,24a2.78,2.78,0,0,1,1.66-.56,3.7,3.7,0,0,1,.58,0Z"></path><path class="cls-2" d="M131.93,28.35a5.4,5.4,0,0,1-.08,1h-6.91a3,3,0,0,0,1,2.35,3.42,3.42,0,0,0,2.26.72A7.64,7.64,0,0,0,131,32l.36,1.6a8.64,8.64,0,0,1-3.47.64,5,5,0,0,1-3.79-1.42A5.24,5.24,0,0,1,122.72,29a5.94,5.94,0,0,1,1.28-3.9,4.41,4.41,0,0,1,3.62-1.66A3.86,3.86,0,0,1,131,25.09,5.61,5.61,0,0,1,131.93,28.35Zm-2.2-.6a3.13,3.13,0,0,0-.45-1.77,2,2,0,0,0-1.83-1,2.18,2.18,0,0,0-1.83.94,3.44,3.44,0,0,0-.68,1.79h4.8Z"></path><path class="cls-2" d="M52.1,7.64l-.25.9a3.15,3.15,0,0,0-1.34-.27A2.4,2.4,0,0,0,48.69,9,2.78,2.78,0,0,0,48,11a2.77,2.77,0,0,0,.66,2,2.38,2.38,0,0,0,1.83.71,3.3,3.3,0,0,0,1.39-.26l.2.89a4.26,4.26,0,0,1-1.79.3,3.42,3.42,0,0,1-2.53-.93,3.54,3.54,0,0,1-1-2.62,3.49,3.49,0,0,1,3.68-3.71A3.56,3.56,0,0,1,52.1,7.64Z"></path><path class="cls-2" d="M58.35,11.92a2.79,2.79,0,0,1-.67,1.93,2.39,2.39,0,0,1-1.87.78A2.28,2.28,0,0,1,54,13.88,2.71,2.71,0,0,1,53.36,12,2.77,2.77,0,0,1,54,10.07a2.38,2.38,0,0,1,1.85-.75,2.33,2.33,0,0,1,1.8.74A2.69,2.69,0,0,1,58.35,11.92Zm-1.17,0a2.3,2.3,0,0,0-.3-1.21,1.12,1.12,0,0,0-1-.61,1.14,1.14,0,0,0-1,.61,2.33,2.33,0,0,0-.3,1.23,2.3,2.3,0,0,0,.3,1.21,1.14,1.14,0,0,0,1,.61,1.13,1.13,0,0,0,1-.62A2.29,2.29,0,0,0,57.18,12Z"></path><path class="cls-2" d="M64.44,14.51H63.3V11.59q0-1.35-1-1.35a1,1,0,0,0-.82.37,1.31,1.31,0,0,0-.31.87v3H60V10.87q0-.67,0-1.46h1l.05.8h0a1.64,1.64,0,0,1,.59-.61,1.91,1.91,0,0,1,1-.29,1.62,1.62,0,0,1,1.18.46,2.24,2.24,0,0,1,.59,1.69Z"></path><path class="cls-2" d="M69.54,13A1.4,1.4,0,0,1,69,14.19a2.22,2.22,0,0,1-1.45.43,2.94,2.94,0,0,1-1.48-.35l.24-.84a2.36,2.36,0,0,0,1.25.36q.87,0,.87-.64a.63.63,0,0,0-.19-.47,2,2,0,0,0-.67-.36q-1.36-.5-1.36-1.47a1.4,1.4,0,0,1,.5-1.1,2,2,0,0,1,1.33-.44,2.54,2.54,0,0,1,1.29.31l-.24.81a2,2,0,0,0-1-.29.84.84,0,0,0-.56.17.54.54,0,0,0-.2.43.52.52,0,0,0,.21.43,2.35,2.35,0,0,0,.69.34Q69.54,12,69.54,13Z"></path><path class="cls-2" d="M72.36,14.51H71.23V9.42h1.13Zm1-7.23L72.06,8.8h-.79l.9-1.52Z"></path><path class="cls-2" d="M78.83,9.42c0,.41,0,.89,0,1.45v2.91a3,3,0,0,1-.73,2.3,2.71,2.71,0,0,1-1.89.61,3.24,3.24,0,0,1-1.71-.4l.26-.87a2.73,2.73,0,0,0,1.45.39q1.5,0,1.5-1.61V13.7h0a1.62,1.62,0,0,1-1.5.78,1.91,1.91,0,0,1-1.52-.7A2.65,2.65,0,0,1,74,12a2.81,2.81,0,0,1,.69-2,2,2,0,0,1,1.56-.7,1.57,1.57,0,0,1,1.49.81h0l0-.7h1Zm-1.18,2.91v-.9a1.29,1.29,0,0,0-.32-.88,1.06,1.06,0,0,0-.85-.37,1.16,1.16,0,0,0-1,.48A2.05,2.05,0,0,0,75.16,12a1.88,1.88,0,0,0,.35,1.18,1.15,1.15,0,0,0,1,.49,1.1,1.1,0,0,0,.68-.22,1.2,1.2,0,0,0,.43-.61A1.45,1.45,0,0,0,77.66,12.33Z"></path><path class="cls-2" d="M85.2,14.51h-1l-.06-.78h0a1.76,1.76,0,0,1-1.61.89,1.59,1.59,0,0,1-1.2-.47,2.48,2.48,0,0,1-.53-1.74v-3H81.9v2.81q0,1.47,1,1.47A1.05,1.05,0,0,0,84,13a1.18,1.18,0,0,0,.07-.43V9.42h1.13V13Q85.16,13.76,85.2,14.51Z"></path><path class="cls-2" d="M91.36,11.72a2.73,2.73,0,0,1,0,.51H87.92a1.48,1.48,0,0,0,.49,1.15,1.68,1.68,0,0,0,1.11.36,3.73,3.73,0,0,0,1.37-.24l.18.79a4.25,4.25,0,0,1-1.71.31,2.48,2.48,0,0,1-1.86-.7A2.58,2.58,0,0,1,86.83,12a2.91,2.91,0,0,1,.63-1.92,2.17,2.17,0,0,1,1.78-.82,1.9,1.9,0,0,1,1.67.82A2.73,2.73,0,0,1,91.36,11.72Zm-1.08-.29a1.55,1.55,0,0,0-.22-.87,1,1,0,0,0-.9-.47,1.08,1.08,0,0,0-.9.46,1.69,1.69,0,0,0-.33.88Z"></path><path class="cls-2" d="M94.13,14.51H93V7.08h1.13Z"></path><path class="cls-2" d="M100.8,11.92a2.79,2.79,0,0,1-.67,1.93,2.4,2.4,0,0,1-1.87.78,2.27,2.27,0,0,1-1.79-.74A2.71,2.71,0,0,1,95.81,12a2.77,2.77,0,0,1,.69-1.94,2.38,2.38,0,0,1,1.85-.75,2.33,2.33,0,0,1,1.8.74A2.69,2.69,0,0,1,100.8,11.92Zm-1.18,0a2.3,2.3,0,0,0-.3-1.21,1.12,1.12,0,0,0-1-.61,1.13,1.13,0,0,0-1,.61A2.33,2.33,0,0,0,97,12a2.3,2.3,0,0,0,.3,1.21,1.14,1.14,0,0,0,1,.61,1.13,1.13,0,0,0,1-.62A2.28,2.28,0,0,0,99.62,12Z"></path><path class="cls-2" d="M109.71,11.72a2.73,2.73,0,0,1,0,.51h-3.39a1.48,1.48,0,0,0,.49,1.15,1.69,1.69,0,0,0,1.11.36,3.75,3.75,0,0,0,1.37-.24l.18.79a4.26,4.26,0,0,1-1.71.31,2.47,2.47,0,0,1-1.86-.7,2.57,2.57,0,0,1-.68-1.87,2.91,2.91,0,0,1,.63-1.92,2.16,2.16,0,0,1,1.78-.82,1.89,1.89,0,0,1,1.66.82A2.72,2.72,0,0,1,109.71,11.72Zm-1.08-.29a1.52,1.52,0,0,0-.22-.87,1,1,0,0,0-.9-.47,1.07,1.07,0,0,0-.9.46,1.71,1.71,0,0,0-.34.88Z"></path><path class="cls-2" d="M115.78,14.51h-1.13V11.59q0-1.35-1-1.35a1,1,0,0,0-.82.37,1.31,1.31,0,0,0-.31.87v3h-1.13V10.87q0-.67,0-1.46h1l.05.8h0A1.65,1.65,0,0,1,113,9.6a1.92,1.92,0,0,1,1-.29,1.62,1.62,0,0,1,1.18.46,2.24,2.24,0,0,1,.59,1.69Z"></path><path class="cls-2" d="M125,11.72a2.73,2.73,0,0,1,0,.51h-3.39a1.48,1.48,0,0,0,.49,1.15,1.68,1.68,0,0,0,1.11.36,3.73,3.73,0,0,0,1.37-.24l.18.79a4.25,4.25,0,0,1-1.71.31,2.48,2.48,0,0,1-1.86-.7,2.58,2.58,0,0,1-.68-1.87,2.91,2.91,0,0,1,.63-1.92,2.17,2.17,0,0,1,1.78-.82,1.9,1.9,0,0,1,1.67.82A2.73,2.73,0,0,1,125,11.72Zm-1.08-.29a1.55,1.55,0,0,0-.22-.87,1,1,0,0,0-.9-.47,1.08,1.08,0,0,0-.9.46,1.69,1.69,0,0,0-.33.88Z"></path><path class="cls-2" d="M127.8,14.51h-1.13V7.08h1.13Z"></path></svg> 