<?xml version="1.0" encoding="UTF-8"?> <svg xmlns="http://www.w3.org/2000/svg" xmlns:xlink="http://www.w3.org/1999/xlink" id="Layer_1" data-name="Layer 1" viewBox="0 0 145.81 43.2"><defs><style>.cls-1,.cls-10,.cls-11,.cls-3{fill:#fff;}.cls-1{fill-opacity:0;}.cls-2{fill:#a6a6a6;}.cls-4{fill:url(#linear-gradient);}.cls-5{fill:url(#linear-gradient-2);}.cls-6{fill:url(#linear-gradient-3);}.cls-7{fill:url(#linear-gradient-4);}.cls-8{opacity:0.2;}.cls-10,.cls-8,.cls-9{isolation:isolate;}.cls-9{opacity:0.12;}.cls-10{opacity:0.25;}.cls-11{stroke:#fff;stroke-miterlimit:10;stroke-width:0.2px;}</style><linearGradient id="linear-gradient" x1="23.54" y1="1609.82" x2="5.42" y2="1591.7" gradientTransform="matrix(1, 0, 0, -1, 0, 1619.23)" gradientUnits="userSpaceOnUse"><stop offset="0" stop-color="#00a0ff"></stop><stop offset="0.01" stop-color="#00a1ff"></stop><stop offset="0.26" stop-color="#00beff"></stop><stop offset="0.51" stop-color="#00d2ff"></stop><stop offset="0.76" stop-color="#00dfff"></stop><stop offset="1" stop-color="#00e3ff"></stop></linearGradient><linearGradient id="linear-gradient-2" x1="36.54" y1="1597.63" x2="10.41" y2="1597.63" gradientTransform="matrix(1, 0, 0, -1, 0, 1619.23)" gradientUnits="userSpaceOnUse"><stop offset="0" stop-color="#ffe000"></stop><stop offset="0.41" stop-color="#ffbd00"></stop><stop offset="0.78" stop-color="orange"></stop><stop offset="1" stop-color="#ff9c00"></stop></linearGradient><linearGradient id="linear-gradient-3" x1="26.81" y1="1595.15" x2="2.23" y2="1570.57" gradientTransform="matrix(1, 0, 0, -1, 0, 1619.23)" gradientUnits="userSpaceOnUse"><stop offset="0" stop-color="#ff3a44"></stop><stop offset="1" stop-color="#c31162"></stop></linearGradient><linearGradient id="linear-gradient-4" x1="7.88" y1="1619.04" x2="18.86" y2="1608.06" gradientTransform="matrix(1, 0, 0, -1, 0, 1619.23)" gradientUnits="userSpaceOnUse"><stop offset="0" stop-color="#32a071"></stop><stop offset="0.07" stop-color="#2da771"></stop><stop offset="0.48" stop-color="#15cf74"></stop><stop offset="0.8" stop-color="#06e775"></stop><stop offset="1" stop-color="#00f076"></stop></linearGradient></defs><title>play-store</title><rect class="cls-1" x="-10.8" y="-10.8" width="167.41" height="64.8"></rect><rect width="145.81" height="43.2" rx="5.4" ry="5.4"></rect><path class="cls-2" d="M140.41.86a4.54,4.54,0,0,1,4.54,4.54V37.8a4.54,4.54,0,0,1-4.54,4.54H5.4A4.54,4.54,0,0,1,.86,37.8V5.4A4.54,4.54,0,0,1,5.4.86h135m0-.86H5.4A5.42,5.42,0,0,0,0,5.4V37.8a5.42,5.42,0,0,0,5.4,5.4h135a5.42,5.42,0,0,0,5.4-5.4V5.4a5.42,5.42,0,0,0-5.4-5.4Z"></path><path class="cls-3" d="M73.59,23.49a4.59,4.59,0,1,0,4.61,4.59A4.53,4.53,0,0,0,73.59,23.49Zm0,7.38a2.79,2.79,0,1,1,2.59-2.78A2.66,2.66,0,0,1,73.59,30.87ZM63.53,23.49a4.59,4.59,0,1,0,4.61,4.59A4.53,4.53,0,0,0,63.53,23.49Zm0,7.38a2.79,2.79,0,1,1,2.59-2.78A2.66,2.66,0,0,1,63.53,30.87Zm-12-6v1.95h4.66a4.07,4.07,0,0,1-1.06,2.45,4.77,4.77,0,0,1-3.6,1.43,5.19,5.19,0,0,1,0-10.37,5,5,0,0,1,3.51,1.39l1.37-1.37a6.8,6.8,0,0,0-4.89-2,7.13,7.13,0,1,0,0,14.27,6.52,6.52,0,0,0,5-2,6.44,6.44,0,0,0,1.69-4.56,6.34,6.34,0,0,0-.1-1.22Zm48.94,1.51a4.27,4.27,0,0,0-3.93-2.92,4.37,4.37,0,0,0-4.33,4.59,4.5,4.5,0,0,0,4.56,4.59,4.57,4.57,0,0,0,3.83-2l-1.57-1a2.62,2.62,0,0,1-2.26,1.27,2.34,2.34,0,0,1-2.23-1.39l6.14-2.54Zm-6.26,1.53a2.52,2.52,0,0,1,2.4-2.68,1.78,1.78,0,0,1,1.71,1Zm-5,4.45h2V18.9h-2Zm-3.31-7.88h-.07a3.18,3.18,0,0,0-2.42-1,4.6,4.6,0,0,0,0,9.19,3.13,3.13,0,0,0,2.42-1h.07v.66c0,1.76-.94,2.7-2.45,2.7a2.54,2.54,0,0,1-2.31-1.64l-1.76.73a4.38,4.38,0,0,0,4.07,2.71c2.37,0,4.37-1.39,4.37-4.79V23.77H85.94Zm-2.31,6.35a2.79,2.79,0,0,1,0-5.57,2.59,2.59,0,0,1,2.45,2.8A2.57,2.57,0,0,1,83.62,30.87ZM110,18.9h-4.83V32.4h2V27.29H110a4.2,4.2,0,1,0,0-8.39Zm.05,6.51h-2.87V20.78H110a2.31,2.31,0,1,1,0,4.63Zm12.45-1.94a3.78,3.78,0,0,0-3.6,2.07l1.79.75a1.91,1.91,0,0,1,1.84-1A1.94,1.94,0,0,1,124.62,27v.14a4.46,4.46,0,0,0-2.1-.52c-1.93,0-3.89,1.06-3.89,3a3.12,3.12,0,0,0,3.35,3,2.84,2.84,0,0,0,2.57-1.32h.07v1h1.95V27.2C126.56,24.81,124.77,23.47,122.46,23.47Zm-.24,7.4c-.66,0-1.58-.33-1.58-1.15,0-1,1.15-1.44,2.14-1.44a3.59,3.59,0,0,1,1.84.45A2.44,2.44,0,0,1,122.22,30.87Zm11.43-7.1-2.31,5.85h-.07l-2.4-5.85H126.7l3.6,8.18-2,4.55h2.1l5.54-12.73ZM115.5,32.4h2V18.9h-2Z"></path><path class="cls-4" d="M11.27,8.14a2.16,2.16,0,0,0-.5,1.52V33.55a2.16,2.16,0,0,0,.5,1.52l.08.08L24.73,21.76v-.32L11.35,8.06Z"></path><path class="cls-5" d="M29.19,26.22l-4.46-4.46v-.32L29.19,17l.1.06,5.28,3c1.51.86,1.51,2.26,0,3.12l-5.28,3Z"></path><path class="cls-6" d="M29.29,26.16,24.73,21.6,11.27,35.06a1.76,1.76,0,0,0,2.24.07l15.78-9"></path><path class="cls-7" d="M29.29,17l-15.78-9a1.76,1.76,0,0,0-2.24.07L24.73,21.6Z"></path><path class="cls-8" d="M29.19,26.06,13.52,35a1.8,1.8,0,0,1-2.16,0h0l-.08.08h0l.08.08h0a1.8,1.8,0,0,0,2.16,0l15.78-9Z"></path><path class="cls-9" d="M11.27,34.91a2.16,2.16,0,0,1-.5-1.52v.16a2.16,2.16,0,0,0,.5,1.52l.08-.08Z"></path><path class="cls-9" d="M34.58,23l-5.39,3.06.1.1,5.28-3a1.9,1.9,0,0,0,1.13-1.56h0A2,2,0,0,1,34.58,23Z"></path><path class="cls-10" d="M13.52,8.23l21.06,12a2,2,0,0,1,1.13,1.4h0A1.89,1.89,0,0,0,34.58,20l-21.06-12c-1.51-.86-2.74-.15-2.74,1.58v.16C10.77,8.09,12,7.38,13.52,8.23Z"></path><path class="cls-11" d="M44.58,14V7.56h2a3.22,3.22,0,0,1,2.39.9,3.17,3.17,0,0,1,.9,2.34,3.17,3.17,0,0,1-.9,2.34,3.22,3.22,0,0,1-2.39.9Zm.83-.8h1.15a2.43,2.43,0,0,0,1.78-.64A2.4,2.4,0,0,0,49,10.8,2.41,2.41,0,0,0,48.34,9a2.43,2.43,0,0,0-1.78-.65H45.42Z"></path><path class="cls-11" d="M51,14V7.56h.83V14Z"></path><path class="cls-11" d="M55.16,14.19a2.42,2.42,0,0,1-1.38-.46,2.13,2.13,0,0,1-.88-1.29l.76-.31a1.73,1.73,0,0,0,.56.9,1.41,1.41,0,0,0,.95.37,1.52,1.52,0,0,0,.93-.28.91.91,0,0,0,.38-.77,1,1,0,0,0-.38-.84,4,4,0,0,0-1.22-.55,3.25,3.25,0,0,1-1.3-.7,1.47,1.47,0,0,1-.44-1.1,1.61,1.61,0,0,1,.55-1.21,2,2,0,0,1,1.44-.52,2.08,2.08,0,0,1,1.34.41,1.9,1.9,0,0,1,.67.9L56.37,9a1.13,1.13,0,0,0-.4-.57,1.41,1.41,0,0,0-1.65,0,.81.81,0,0,0-.34.66.76.76,0,0,0,.31.61,3,3,0,0,0,.92.45,7.82,7.82,0,0,1,.8.3,3.65,3.65,0,0,1,.65.38,1.53,1.53,0,0,1,.5.6,1.93,1.93,0,0,1,.17.83,1.78,1.78,0,0,1-.19.84,1.58,1.58,0,0,1-.52.59,2.56,2.56,0,0,1-.69.33A2.6,2.6,0,0,1,55.16,14.19Z"></path><path class="cls-11" d="M59.36,14h-.83V7.56h2.21a2,2,0,0,1,1.42.55,1.88,1.88,0,0,1,0,2.76,2,2,0,0,1-1.42.55H59.36Zm0-3.42h1.39a1.08,1.08,0,0,0,.84-.35,1.12,1.12,0,0,0,0-1.56,1.07,1.07,0,0,0-.84-.35H59.36Z"></path><path class="cls-11" d="M69.11,13.2a3.37,3.37,0,0,1-4.75,0,3.31,3.31,0,0,1-1-2.4,3.31,3.31,0,0,1,1-2.4,3.35,3.35,0,0,1,4.75,0,3.31,3.31,0,0,1,1,2.4A3.32,3.32,0,0,1,69.11,13.2ZM65,12.66a2.49,2.49,0,0,0,3.52,0,2.54,2.54,0,0,0,.72-1.86,2.54,2.54,0,0,0-.72-1.86,2.49,2.49,0,0,0-3.52,0,2.54,2.54,0,0,0-.72,1.86A2.54,2.54,0,0,0,65,12.66Z"></path><path class="cls-11" d="M71.23,14V7.56h1l3.15,5h0l0-1.25V7.56h.83V14h-.87l-3.3-5.29h0l0,1.25v4Z"></path><path class="cls-11" d="M77.71,14V7.56h.83V14Z"></path><path class="cls-11" d="M80,14V7.56h2.34a1.9,1.9,0,0,1,1.32.5,1.63,1.63,0,0,1,.56,1.26,1.41,1.41,0,0,1-.24.81,1.5,1.5,0,0,1-.64.53v0a1.65,1.65,0,0,1,.79.56,1.47,1.47,0,0,1,.31.92,1.7,1.7,0,0,1-.58,1.32A2,2,0,0,1,82.5,14Zm.83-3.7h1.51a1,1,0,0,0,.76-.31,1,1,0,0,0,0-1.36.93.93,0,0,0-.73-.31H80.86Zm0,2.91h1.67a1,1,0,0,0,.78-.34,1.08,1.08,0,0,0,.3-.73,1.09,1.09,0,0,0-1.11-1.06H80.86Z"></path><path class="cls-11" d="M85.58,14V7.56h.83v5.68h2.81V14Z"></path><path class="cls-11" d="M94.06,8.36h-3v2.05h2.66v.78H91.1v2.05h3V14H90.27V7.56h3.78Z"></path><path class="cls-11" d="M101.31,8.36h-3v2.05H101v.78H98.36v2.05h3V14H97.53V7.56h3.78Z"></path><path class="cls-11" d="M102.62,14V7.56h1l3.15,5h0l0-1.25V7.56h.83V14h-.87l-3.3-5.29h0l0,1.25v4Z"></path></svg> 